<?xml version="1.0" encoding="utf-8"?>
<!-- Generator: Adobe Illustrator 14.0.0, SVG Export Plug-In . SVG Version: 6.00 Build 43363)  -->
<!DOCTYPE svg PUBLIC "-//W3C//DTD SVG 1.1//EN" "http://www.w3.org/Graphics/SVG/1.1/DTD/svg11.dtd">
<svg version="1.1" id="Layer_1" xmlns="http://www.w3.org/2000/svg" xmlns:xlink="http://www.w3.org/1999/xlink" x="0px" y="0px"
	 width="160px" height="87.275px" viewBox="0 0 160 87.275" enable-background="new 0 0 160 87.275" xml:space="preserve">
<g id="Layer_1_1_">
</g>
<path fill="#FFFFFF" d="M133.19,30.926c-3.547-11.527-14.274-19.906-26.963-19.906c-7.803,0-14.864,3.168-19.972,8.288
	C82.526,8.095,71.969,0,59.504,0C43.925,0,31.295,12.631,31.295,28.209c0,0.96,0.05,1.908,0.143,2.844
	c-1.062-0.121-2.136-0.198-3.229-0.198C12.63,30.854,0,43.484,0,59.063s12.631,28.209,28.209,28.209v0.002h103.582v-0.002
	c15.579,0,28.208-12.631,28.208-28.209C159.999,43.956,148.116,31.659,133.19,30.926z"/>
</svg>
